Coordinates
version=1
nRows=20
nColumns=34
inDegrees=yes

Units are S.I. units (second, meters, Newtons, ...)
If the header above contains a line with 'inDegrees', this indicates whether rotational values are in degrees (yes) or radians (no).

endheader
time	pelvis_tilt	pelvis_list	pelvis_rotation	pelvis_tx	pelvis_ty	pelvis_tz	hip_flexion_r	hip_adduction_r	hip_rotation_r	knee_angle_r	ankle_angle_r	subtalar_angle_r	mtp_angle_r	hip_flexion_l	hip_adduction_l	hip_rotation_l	knee_angle_l	ankle_angle_l	subtalar_angle_l	mtp_angle_l	lumbar_extension	lumbar_bending	lumbar_rotation	arm_flex_r	arm_add_r	arm_rot_r	elbow_flex_r	pro_sup_r	arm_flex_l	arm_add_l	arm_rot_l	elbow_flex_l	pro_sup_l
      1.75000000	      2.85518756	     -1.00832291	      3.94790500	     -0.75375922	      0.91394438	      0.22363415	    -13.28878648	      6.19204747	     -2.09207718	     -3.89463256	     10.54483145	     -1.10710355	      4.01934283	     23.48831444	      0.83759270	     -2.32318674	    -22.22425118	      0.90444980	     -9.98076687	     14.22554946	     -9.48989996	      2.71158304	      2.98855071	      0.24661178	    -22.29677326	      4.89707581	     38.70876895	     90.00000000	     -3.87424484	    -15.06826464	     16.49475106	     17.97413866	     90.00000000
      1.76000000	      3.02982315	     -1.12821007	      4.00801550	     -0.74116613	      0.91218637	      0.22294558	    -14.63318110	      6.37401549	     -2.11935038	     -3.37019629	     10.75281154	     -0.94676354	      4.02447588	     23.48954892	      0.80645219	     -2.49245728	    -19.06872394	      1.14046235	     -9.30070083	     14.18777431	     -9.73612769	      2.84840959	      3.10668645	      0.63262371	    -22.59509278	      4.80307355	     39.27611980	     90.00000000	     -4.11246675	    -14.97939656	     16.22095916	     17.36644631	     90.00000000
      1.77000000	      2.93276094	     -1.43125446	      4.07744183	     -0.72850803	      0.90989840	      0.22217262	    -15.53619082	      6.71456391	     -2.17378475	     -3.14187533	     11.01041328	     -0.75559003	      4.09817746	     23.81672856	      0.65380978	     -2.56426975	    -16.20302047	      1.25452426	     -8.77970771	     14.14080602	     -9.65081689	      3.15344503	      3.17740780	      0.97954484	    -22.89091536	      4.67590502	     39.74830657	     90.00000000	     -4.53405544	    -14.95349799	     16.08188033	     17.25954437	     90.00000000
      1.78000000	      3.43675483	     -1.44087076	      4.18079669	     -0.71562214	      0.90856594	      0.22123248	    -17.15350813	      6.77623933	     -2.41867503	     -2.80793293	     11.20886084	     -0.37816129	      4.28784505	     23.36231049	      0.74118381	     -2.94388018	    -13.45135363	      1.43187538	     -7.42026164	     13.97996319	    -10.29433190	      3.20708462	      3.24979996	      1.19837366	    -23.18047961	      4.48124360	     40.67549782	     90.00000000	     -4.66091589	    -14.85372224	     15.74310563	     16.66795574	     90.00000000
      1.79000000	      3.31446252	     -1.70020471	      4.23527679	     -0.70272949	      0.90619313	      0.22015389	    -17.95688768	      7.01781340	     -2.26368655	     -2.76557163	     11.47293829	     -0.19515962	      4.39848024	     23.61518219	      0.67378792	     -2.91447202	    -11.04670890	      1.57152781	     -6.57194249	     13.96461499	    -10.16199543	      3.48485476	      3.33825716	      1.42830683	    -23.45719888	      4.32328263	     41.13347598	     90.00000000	     -5.04320934	    -14.79748700	     15.60540684	     16.60186948	     90.00000000
      1.80000000	      3.61550498	     -1.86034716	      4.27884594	     -0.68970034	      0.90451075	      0.21920890	    -19.16231248	      7.17922752	     -2.34538383	     -2.81507228	     11.59767328	      0.17719618	      4.74994175	     23.47137386	      0.59182267	     -3.65782420	     -9.18452031	      1.87885161	     -4.19967575	     13.81347931	    -10.54115427	      3.65906950	      3.49914923	      1.44051774	    -23.69959857	      3.91019725	     42.03454342	     90.00000000	     -5.10846013	    -14.66863554	     15.30885644	     15.99734691	     90.00000000
      1.81000000	      3.58537738	     -2.03058203	      4.29381818	     -0.67665149	      0.90249405	      0.21809829	    -19.86129396	      7.30228889	     -2.40636500	     -3.14420067	     11.79752061	      0.49118114	      5.02244487	     23.59728716	      0.57404955	     -4.06906268	     -7.55093201	      1.61737501	     -2.41107077	     13.76700884	    -10.51796236	      3.82280883	      3.62457408	      1.51540109	    -23.91582875	      3.68476140	     42.53343165	     90.00000000	     -5.31549778	    -14.59606175	     15.14145542	     15.67537244	     90.00000000
      1.82000000	      3.66788133	     -2.23106019	      4.19993305	     -0.66336933	      0.90074892	      0.21705089	    -20.56125404	      7.40197436	     -2.35240433	     -3.74395612	     11.88133079	      0.91122300	      5.76218849	     23.71624977	      0.43900146	     -5.00009198	     -6.65471504	      2.04341129	      0.49157941	     13.71107229	    -10.60297880	      4.01349120	      3.86990532	      1.48631547	    -24.07693932	      3.26418397	     43.11307594	     90.00000000	     -5.42413301	    -14.45042513	     15.26574911	     15.12500648	     90.00000000
      1.83000000	      3.64247446	     -2.40803996	      4.11135742	     -0.64995680	      0.89908826	      0.21592603	    -21.06277815	      7.46668001	     -2.30875851	     -4.46564681	     11.86852487	      1.20061732	      6.21955738	     23.89132815	      0.37794840	     -5.38141879	     -6.13887625	      1.89712085	      2.31808641	     13.62455840	    -10.53715803	      4.16109639	      4.06325018	      1.46242519	    -24.22773121	      3.07642279	     43.45894662	     90.00000000	     -5.51042143	    -14.28152443	     15.21097219	     14.48785160	     90.00000000
      1.84000000	      3.58157380	     -2.48880363	      3.99680923	     -0.63641319	      0.89753089	      0.21472416	    -21.42639106	      7.39068275	     -2.26222100	     -5.38057298	     11.85316675	      1.53368428	      6.62414823	     24.08705046	      0.42980394	     -5.42925317	     -6.16313669	      1.78499227	      3.49724767	     13.57911138	    -10.44032865	      4.19636954	      4.22310053	      1.40649960	    -24.35015365	      2.89521000	     43.77240710	     90.00000000	     -5.66561785	    -14.19997334	     15.07958027	     14.16041706	     90.00000000
      1.85000000	      3.51913033	     -2.53135932	      3.82246882	     -0.62255777	      0.89622444	      0.21375979	    -21.66526686	      7.24265498	     -2.25443275	     -6.55149832	     11.74814533	      2.07740185	      7.12005481	     24.34611606	      0.45965751	     -5.56845140	     -6.84272580	      1.60366290	      4.47897104	     13.49090205	    -10.34396052	      4.16791863	      4.36386841	      1.29669032	    -24.33408385	      2.60739573	     44.00205464	     90.00000000	     -5.81924999	    -14.08431956	     14.99475068	     13.64352035	     90.00000000
      1.86000000	      3.52491494	     -2.54872125	      3.69575997	     -0.60832386	      0.89510551	      0.21268290	    -22.02939659	      7.08168853	     -2.13883677	     -7.64054956	     11.56886279	      2.13120692	      7.14589455	     24.44745492	      0.56414776	     -5.32885326	     -7.86187849	      1.52049600	      4.53332175	     13.48498968	    -10.23190367	      4.11200053	      4.43232808	      1.09890701	    -24.35573573	      2.54917013	     44.23590199	     90.00000000	     -6.28534033	    -14.18744453	     14.89250258	     14.16154134	     90.00000000
      1.87000000	      3.28211869	     -2.55830602	      3.62105033	     -0.59381201	      0.89357137	      0.21164170	    -21.85900554	      6.84660415	     -2.63889968	     -9.22610415	     11.29217361	      3.76506646	      8.44918712	     25.00823278	      0.65707387	     -5.26774607	     -9.70501221	      1.76435962	      5.48421114	     13.31559170	     -9.83743905	      4.02230508	      4.54573027	      0.66467714	    -24.15625663	      1.76683800	     44.38486155	     90.00000000	     -6.10048741	    -13.95505170	     15.15966148	     12.69663004	     90.00000000
      1.88000000	      3.29874924	     -2.47887557	      3.45158237	     -0.57869048	      0.89262696	      0.21064260	    -22.17761845	      6.55369986	     -2.42318735	    -10.47885749	     10.93128281	      3.86674798	      8.48459965	     24.88929762	      0.84776928	     -4.92736748	    -11.18224299	      1.65607707	      5.44721059	     13.29647275	     -9.68504274	      3.83521520	      4.57679091	      0.26452191	    -24.07686083	      1.73252123	     44.59631492	     90.00000000	     -6.66340795	    -14.08730239	     15.07010250	     13.26033977	     90.00000000
      1.89000000	      3.23705225	     -2.07866853	      3.42059625	     -0.56307793	      0.89158236	      0.20919112	    -22.18448216	      5.84641620	     -3.29863114	    -12.10420329	      9.22168612	      5.25233520	     14.96445020	     24.71136284	      1.47285523	     -4.36669574	    -12.69116333	      1.26009837	      4.91694387	     10.89537270	     -9.35674017	      3.34114623	      4.72866054	     -0.62098244	    -23.74691991	      0.50918334	     44.95526864	     90.00000000	     -6.39462622	    -14.07299649	     17.49628663	     11.94852921	     90.00000000
      1.90000000	      3.12622761	     -1.81036249	      3.38927488	     -0.54766835	      0.89093233	      0.20807205	    -22.15123541	      5.38123320	     -3.33361516	    -13.67753249	      8.12931069	      5.56110208	     15.03792973	     24.46576063	      1.88745280	     -4.42100018	    -13.36792097	     -2.78074723	      4.48024620	     10.08979586	     -9.02681959	      2.92366342	      4.61012074	     -1.12372467	    -23.48729945	      0.28957618	     44.90290407	     90.00000000	     -6.72553428	    -14.21059088	     17.22198431	     11.96349195	     90.00000000
      1.91000000	      3.06020073	     -1.36501323	      3.38165680	     -0.53226498	      0.89067737	      0.20676308	    -22.03566418	      4.72993277	     -3.32774726	    -15.44025281	      6.71264574	      5.84483873	     15.15867130	     24.26429586	      2.42695561	     -4.33299020	    -14.17474978	     -4.06627156	      3.49713009	      9.79891486	     -8.71714541	      2.31766981	      4.33502842	     -1.51902720	    -23.09921613	      0.03045631	     44.68972727	     90.00000000	     -6.96604806	    -14.29316018	     17.06586566	     11.92612131	     90.00000000
      1.92000000	      2.79078944	     -0.75846776	      3.74427671	     -0.51714037	      0.89057314	      0.20458547	    -21.53266516	      4.00493559	     -3.81230430	    -17.38666547	      4.37406431	      5.90603705	     22.33767153	     24.38555285	      3.41710380	     -3.02329612	    -15.43032189	     -5.70657988	      0.16712120	     11.09763988	     -8.16596079	      1.61563201	      3.80304947	     -1.96516201	    -22.62429875	     -0.47638434	     43.91068629	     90.00000000	     -6.86304672	    -14.29045055	     18.48022478	     11.04092410	     90.00000000
      1.93000000	      2.39315669	     -0.37569124	      4.02723354	     -0.50216644	      0.89061968	      0.20293564	    -20.65375156	      3.53283066	     -3.84152271	    -19.67249585	      2.27929360	      5.66281830	     22.56525684	     24.93104964	      3.99104766	     -2.14880227	    -17.45269645	     -6.49941934	     -1.95558024	     10.82429980	     -7.50490308	      1.09085060	      3.25714466	     -2.35814605	    -22.12381146	     -0.77446816	     43.16432554	     90.00000000	     -6.95772831	    -14.33617182	     18.36288669	     10.80794207	     90.00000000
      1.94000000	      2.08537400	      0.01420756	      4.44419167	     -0.48741597	      0.89101077	      0.20112175	    -19.58037534	      3.01738483	     -4.42622605	    -22.25544654	     -0.97439534	      5.18275580	     28.97863065	     25.22517432	      4.65975528	     -1.14026338	    -19.14795899	     -6.96796509	     -4.35432034	     10.45140529	     -6.98586152	      0.59397975	      2.63203777	     -2.76714239	    -21.66604378	     -0.84901549	     42.37979942	     90.00000000	     -6.85755646	    -14.41462847	     19.89683997	     10.41907969	     90.00000000
